PathFileType   4   (X/Y/Z)
DataRate	CameraRate	NumFrames	NumMarkers	Units	OrigDataRate	OrigDataStartFrame	OrigNumFrames
120.0	120.0	12	37	mm	120.0	107	122
Frame#	Time	midhip	hip_r	hip_l	knee_r	knee_l	ankle_r	ankle_l	midasis	asis_r	asis_l	psis_r	psis_l	epicondLat_r	epicondLat_l	epicondMed_r	epicondMed_l	malleolusLat_r	malleolusLat_l	malleolusMedv_r	malleolusMedv_l	neck	subclavicle_r	subclavicle_l	sternalnotch	xyphoidprocess	thighwand_r	thighwand_l	upperleg1_r	upperleg1_l	upperleg2_r	upperleg2_l	shankwand_r	shankwand_l	lowerleg1_r	lowerleg1_l	toe_r	toe_l
 	 	X1	Y1	Z1	X2	Y2	Z2	X3	Y3	Z3	X4	Y4	Z4	X5	Y5	Z5	X6	Y6	Z6	X7	Y7	Z7	X8	Y8	Z8	X9	Y9	Z9	X10	Y10	Z10	X11	Y11	Z11	X12	Y12	Z12	X13	Y13	Z13	X14	Y14	Z14	X15	Y15	Z15	X16	Y16	Z16	X17	Y17	Z17	X18	Y18	Z18	X19	Y19	Z19	X20	Y20	Z20	X21	Y21	Z21	X22	Y22	Z22	X23	Y23	Z23	X24	Y24	Z24	X25	Y25	Z25	X26	Y26	Z26	X27	Y27	Z27	X28	Y28	Z28	X29	Y29	Z29	X30	Y30	Z30	X31	Y31	Z31	X32	Y32	Z32	X33	Y33	Z33	X34	Y34	Z34	X35	Y35	Z35	X36	Y36	Z36	X37	Y37	Z37

	107	0.99167	2095.934	675.720	-186.366	2088.040	683.143	-120.835	2095.296	679.381	-246.398	2017.471	382.463	-158.075	2236.812	383.595	-239.741	1928.222	62.122	-173.477	2333.670	76.792	-255.492	2155.609	746.516	-181.877	2150.216	749.312	-88.563	2161.001	743.720	-275.190	2007.627	783.167	-176.830	2011.700	773.656	-231.188	2017.355	376.282	-107.955	2230.912	379.658	-289.235	2014.717	386.130	-208.093	2242.711	379.998	-189.730	1921.289	62.478	-140.704	2321.649	74.653	-287.760	1928.581	74.150	-200.484	2332.985	82.189	-226.814	2055.516	1131.420	-179.819	2137.767	1079.071	-124.018	2127.545	1084.718	-251.588	2126.384	1070.812	-190.402	2138.720	927.531	-196.954	2039.040	456.261	-19.962	2304.930	530.427	-291.610	2079.351	516.746	-79.781	2225.264	553.693	-231.000	2075.516	437.035	-105.910	2252.162	470.385	-221.969	1932.091	160.549	-62.158	2372.652	197.267	-303.889	1957.802	215.540	-118.059	2306.934	233.203	-271.381	2021.886	38.066	-167.950	2422.076	85.940	-268.903
	108	1.00000	2105.536	673.687	-186.644	2097.283	681.323	-121.028	2105.093	677.266	-246.548	2022.036	382.255	-158.236	2246.614	381.737	-238.479	1928.706	63.077	-173.743	2356.546	78.743	-255.126	2165.095	744.578	-181.922	2159.288	747.594	-88.605	2170.901	741.562	-275.238	2017.238	781.178	-177.907	2021.467	771.484	-232.184	2021.750	376.091	-108.114	2240.656	377.534	-287.944	2018.725	386.182	-208.088	2251.599	377.359	-187.969	1921.697	63.535	-140.987	2344.527	76.154	-287.361	1928.967	75.089	-200.840	2356.375	84.808	-226.624	2064.945	1129.339	-180.376	2147.091	1076.862	-124.458	2136.923	1082.597	-252.008	2135.753	1068.720	-190.880	2147.873	925.364	-197.473	2044.612	455.785	-20.189	2313.927	527.869	-290.881	2085.805	516.038	-80.188	2233.330	550.621	-230.576	2080.583	436.238	-106.168	2260.684	467.602	-220.780	1933.582	161.536	-62.451	2390.067	201.456	-303.414	1959.852	216.199	-118.388	2322.604	234.831	-270.549	2021.987	38.096	-168.085	2445.019	90.671	-268.671
	109	1.00833	2115.208	671.643	-186.960	2106.598	679.500	-121.234	2114.928	675.166	-246.712	2027.026	382.003	-158.386	2256.563	379.961	-237.320	1929.252	64.134	-173.914	2377.846	80.744	-254.550	2174.655	742.627	-181.987	2168.459	745.850	-88.658	2180.850	739.403	-275.316	2026.988	779.198	-178.987	2031.293	769.359	-233.179	2026.536	375.875	-108.262	2250.700	375.574	-286.781	2023.296	386.088	-208.187	2261.080	375.121	-186.351	1922.191	64.706	-141.171	2365.872	77.746	-286.766	1929.667	76.037	-201.212	2378.134	87.553	-226.144	2074.531	1127.270	-180.991	2156.481	1074.664	-124.942	2146.258	1080.407	-252.517	2145.155	1066.611	-191.402	2156.853	923.155	-197.950	2050.418	455.320	-20.395	2323.283	525.705	-289.871	2092.217	514.956	-80.299	2241.538	547.988	-229.971	2085.900	435.292	-106.285	2269.587	465.288	-219.535	1935.324	162.617	-62.663	2406.584	205.229	-302.800	1962.199	216.826	-118.714	2337.790	236.378	-269.684	2022.098	38.120	-168.197	2466.357	95.069	-268.285
	110	1.01667	2124.932	669.634	-187.313	2115.994	677.700	-121.462	2124.801	673.123	-246.899	2032.461	381.702	-158.527	2266.722	378.320	-236.275	1929.871	65.306	-173.983	2397.463	82.584	-253.756	2184.298	740.695	-182.076	2177.743	744.101	-88.726	2190.852	737.289	-275.427	2036.855	777.270	-180.046	2041.182	767.324	-234.157	2031.745	375.627	-108.399	2261.097	373.829	-285.754	2027.946	385.872	-208.443	2270.946	373.239	-185.169	1922.787	66.004	-141.248	2385.566	79.228	-285.965	1930.466	77.100	-201.404	2398.136	90.186	-225.367	2084.111	1125.225	-181.631	2165.904	1072.505	-125.515	2155.768	1078.269	-253.142	2154.596	1064.519	-191.968	2166.070	920.998	-198.549	2056.510	454.863	-20.578	2333.040	523.986	-288.631	2098.483	513.506	-80.272	2250.044	545.832	-229.295	2091.284	434.110	-106.488	2278.854	463.419	-218.426	1937.343	163.792	-62.785	2422.218	208.404	-302.050	1964.970	217.493	-118.964	2352.309	237.653	-268.708	2022.223	38.134	-168.284	2485.999	98.908	-267.713
	111	1.02500	2134.704	667.704	-187.702	2125.491	675.950	-121.721	2134.728	671.183	-247.120	2038.345	381.354	-158.661	2277.143	376.866	-235.347	1930.576	66.614	-173.945	2415.323	84.073	-252.752	2194.036	738.820	-182.192	2187.157	742.370	-88.811	2200.914	735.269	-275.574	2046.820	775.432	-181.061	2051.138	765.420	-235.099	2037.399	375.348	-108.528	2271.879	372.338	-284.862	2033.735	385.675	-208.554	2281.255	371.738	-184.299	1923.500	67.447	-141.211	2403.520	80.417	-284.963	1931.260	78.302	-201.374	2416.162	92.499	-224.312	2093.656	1123.215	-182.357	2175.338	1070.334	-126.135	2165.394	1076.185	-253.829	2164.081	1062.478	-192.576	2175.417	918.869	-199.281	2062.938	454.412	-20.739	2343.215	522.730	-287.221	2105.666	512.291	-80.142	2259.078	544.143	-228.576	2097.454	433.002	-106.413	2288.607	462.002	-217.433	1939.659	165.070	-62.814	2436.990	210.827	-301.175	1968.165	218.145	-119.072	2366.117	238.595	-267.625	2022.373	38.142	-168.344	2503.885	101.965	-266.922
	112	1.03333	2144.537	665.895	-188.129	2135.112	674.275	-122.018	2144.729	669.383	-247.383	2044.671	380.969	-158.792	2287.864	375.640	-234.530	1931.386	68.080	-173.804	2431.386	85.055	-251.555	2203.884	737.040	-182.338	2196.718	740.685	-88.917	2211.051	733.395	-275.759	2056.877	773.713	-182.011	2061.173	763.676	-235.985	2043.507	375.041	-108.655	2283.058	371.129	-284.094	2040.644	385.520	-208.443	2291.955	370.658	-183.434	1924.350	69.057	-141.066	2419.683	81.163	-283.776	1932.142	79.621	-201.201	2432.234	94.238	-223.035	2103.317	1121.315	-183.159	2184.835	1068.274	-126.721	2174.988	1074.212	-254.530	2173.631	1060.528	-193.226	2184.687	916.848	-199.999	2069.743	453.967	-20.883	2353.808	521.929	-285.710	2113.800	511.370	-79.931	2268.779	542.894	-227.895	2104.442	432.085	-106.027	2298.898	460.987	-216.453	1942.282	166.461	-62.751	2450.921	212.379	-300.187	1971.655	218.811	-119.102	2379.342	239.166	-266.604	2022.559	38.152	-168.379	2519.990	104.043	-265.889
	113	1.04167	2154.465	664.238	-188.596	2144.881	672.693	-122.362	2154.832	667.758	-247.699	2051.420	380.559	-158.927	2298.906	374.672	-233.814	1932.323	69.729	-173.568	2445.646	85.423	-250.191	2213.862	735.390	-182.515	2206.442	739.071	-89.047	2221.282	731.710	-275.984	2067.033	772.135	-182.881	2071.303	762.110	-236.800	2050.063	374.717	-108.784	2294.621	370.215	-283.430	2047.282	385.163	-208.229	2303.134	369.878	-182.674	1925.354	70.856	-140.821	2434.040	81.360	-282.426	1933.141	81.056	-200.875	2446.440	95.000	-221.598	2113.121	1119.565	-183.986	2194.333	1066.337	-127.245	2184.674	1072.407	-255.280	2183.255	1058.703	-193.916	2193.907	914.972	-200.746	2076.947	453.528	-21.021	2364.797	521.553	-284.164	2121.879	510.439	-79.914	2279.032	542.004	-227.112	2111.489	431.109	-105.833	2309.695	460.300	-215.484	1945.210	167.984	-62.608	2464.036	212.988	-299.092	1975.233	219.577	-118.983	2392.204	239.387	-265.807	2022.796	38.175	-168.397	2534.319	104.990	-264.600
	114	1.05000	2164.536	662.757	-189.110	2154.825	671.223	-122.759	2165.068	666.329	-248.074	2058.570	380.142	-159.069	2310.267	373.975	-233.185	1933.417	71.583	-173.254	2458.140	85.124	-248.687	2223.989	733.898	-182.725	2216.345	737.550	-89.203	2231.633	730.245	-276.247	2077.306	770.707	-183.664	2081.553	760.731	-237.536	2057.051	374.389	-108.920	2306.535	369.591	-282.852	2054.237	384.519	-208.022	2314.861	369.400	-182.122	1926.537	72.868	-140.494	2446.624	80.960	-280.940	1934.289	82.739	-200.485	2458.729	94.618	-220.044	2122.960	1118.008	-184.834	2203.834	1064.522	-127.744	2194.528	1070.736	-256.096	2192.955	1057.028	-194.638	2203.173	913.225	-201.516	2084.558	453.106	-21.164	2376.144	521.553	-282.655	2129.962	509.498	-80.042	2289.715	541.484	-226.167	2118.858	430.142	-105.764	2320.953	459.981	-214.565	1948.433	169.662	-62.401	2476.359	212.639	-297.895	1978.987	220.485	-118.653	2404.581	239.055	-265.035	2023.099	38.225	-168.406	2546.918	104.722	-263.053
	115	1.05833	2174.799	661.463	-189.673	2164.967	669.874	-123.212	2175.470	665.108	-248.512	2066.101	379.733	-159.221	2321.926	373.543	-232.630	1934.703	73.660	-172.881	2468.951	84.171	-247.070	2234.285	732.580	-182.967	2226.440	736.139	-89.386	2242.130	729.021	-276.548	2087.723	769.436	-184.360	2091.946	759.539	-238.195	2064.449	374.072	-109.067	2318.743	369.237	-282.342	2061.685	383.817	-207.852	2326.573	369.479	-181.470	1927.922	75.109	-140.106	2457.515	79.971	-279.348	1935.649	84.738	-200.098	2469.114	93.344	-218.410	2132.799	1116.646	-185.644	2213.553	1062.959	-128.431	2204.480	1069.216	-256.923	2202.746	1055.528	-195.388	2212.757	911.678	-202.290	2092.561	452.710	-21.322	2387.800	521.866	-281.249	2138.343	508.608	-80.243	2300.988	541.528	-225.454	2126.669	429.260	-105.746	2332.518	460.129	-213.716	1951.936	171.517	-62.153	2487.916	211.373	-296.595	1983.422	221.468	-118.429	2416.084	237.953	-263.962	2023.486	38.311	-168.416	2557.868	103.232	-261.254
	116	1.06667	2185.293	660.355	-190.283	2175.323	668.652	-123.725	2186.065	664.099	-249.011	2073.997	379.344	-159.385	2333.834	373.361	-232.139	1936.218	75.974	-172.467	2478.204	82.633	-245.369	2244.771	731.443	-183.239	2236.742	734.847	-89.597	2252.800	728.040	-276.881	2098.313	768.323	-184.979	2102.509	758.533	-238.786	2072.233	373.779	-109.224	2331.169	369.119	-281.887	2069.385	383.204	-207.818	2338.455	370.014	-180.669	1929.534	77.595	-139.681	2466.848	78.463	-277.678	1937.218	87.029	-199.553	2477.734	91.293	-216.682	2142.758	1115.412	-186.472	2223.380	1061.602	-129.244	2214.487	1067.932	-257.755	2212.636	1054.217	-196.169	2222.512	910.359	-203.184	2100.931	452.354	-21.505	2399.707	522.421	-280.008	2147.084	507.758	-80.583	2312.692	541.980	-224.935	2134.815	428.401	-105.903	2344.384	460.652	-212.909	1955.709	173.572	-61.889	2498.743	209.290	-295.193	1988.280	222.638	-118.318	2427.012	236.624	-263.010	2023.970	38.440	-168.436	2567.295	100.598	-259.217
	117	1.07500	2196.038	659.422	-190.937	2185.907	667.558	-124.293	2196.869	663.296	-249.571	2082.255	378.979	-159.560	2345.922	373.403	-231.706	1937.998	78.530	-172.032	2486.078	80.634	-243.617	2255.464	730.483	-183.539	2247.265	733.671	-89.837	2263.663	727.294	-277.241	2109.098	767.368	-185.529	2113.260	757.709	-239.324	2080.388	373.518	-109.391	2343.720	369.203	-281.480	2077.755	382.625	-207.992	2351.176	370.770	-179.887	1931.403	80.335	-139.237	2474.807	76.554	-275.968	1939.094	89.593	-198.941	2484.740	88.513	-214.836	2152.863	1114.289	-187.397	2233.187	1060.395	-129.988	2224.579	1066.885	-258.600	2222.632	1053.104	-196.976	2232.306	909.239	-204.145	2109.638	452.051	-21.718	2411.806	523.144	-278.983	2156.263	506.976	-81.014	2324.468	542.570	-224.322	2143.466	427.586	-106.179	2356.658	461.415	-212.124	1959.750	175.846	-61.630	2508.888	206.541	-293.689	1993.094	224.110	-118.030	2437.614	235.033	-262.034	2024.561	38.609	-168.470	2575.362	96.964	-256.960
	118	1.08333	2207.034	658.655	-191.630	2196.729	666.586	-124.918	2207.889	662.690	-250.190	2090.885	378.636	-159.742	2358.108	373.643	-231.325	1940.080	81.332	-171.587	2492.784	78.334	-241.855	2266.378	729.685	-183.869	2258.025	732.601	-90.114	2274.730	726.769	-277.625	2120.091	766.572	-186.019	2124.204	757.067	-239.821	2088.911	373.294	-109.564	2356.299	369.453	-281.116	2086.527	382.127	-208.195	2364.300	371.837	-179.057	1933.558	83.334	-138.789	2481.616	74.397	-274.259	1941.407	92.320	-198.517	2490.310	85.309	-212.892	2163.007	1113.338	-188.350	2243.242	1059.456	-130.748	2234.774	1065.988	-259.431	2232.751	1052.189	-197.804	2242.460	908.324	-204.984	2118.656	451.811	-21.966	2424.040	523.967	-278.206	2165.794	506.281	-81.510	2336.494	543.400	-223.866	2152.481	426.931	-106.461	2369.239	462.427	-211.445	1964.073	178.351	-61.392	2518.419	203.316	-292.087	1998.228	225.742	-117.787	2447.627	232.716	-260.437	2025.267	38.812	-168.520	2582.266	92.532	-254.503
